<svg width="16" height="15" viewBox="0 0 16 15"  xmlns="http://www.w3.org/2000/svg">
<g clip-path="url(#clip0)">
<path d="M14.3541 6.19818C14.2375 6.08301 14.0715 6.01727 13.8973 6.01727H7.10238C6.9282 6.01727 6.7622 6.08301 6.64561 6.19818C6.52899 6.31335 6.47273 6.46714 6.49078 6.62136L7.32704 13.7677C7.40886 14.467 8.06621 14.9944 8.85605 14.9944H12.1436C12.9335 14.9944 13.5908 14.467 13.6726 13.7677C13.7078 13.467 13.4625 13.1979 13.1247 13.1666C12.7868 13.1354 12.4846 13.3536 12.4494 13.6543C12.433 13.7942 12.3016 13.8996 12.1436 13.8996H8.85605C8.69808 13.8996 8.56664 13.7941 8.55028 13.6543L8.04091 9.30158H12.9588L12.738 11.1881C12.7028 11.4888 12.9481 11.7579 13.2859 11.7892C13.6236 11.8207 13.926 11.6022 13.9612 11.3015L14.5089 6.62136C14.5269 6.46716 14.4707 6.31335 14.3541 6.19818ZM7.91279 8.20681L7.78467 7.11204H13.215L13.0868 8.20681H7.91279ZM6.36447 14.447C6.36447 14.7493 6.08917 14.9944 5.74955 14.9944H3.68955C2.33328 14.9944 1.22986 14.0122 1.22986 12.8048V8.71451C1.22986 7.56193 1.66221 6.42239 2.44728 5.50582C3.06993 4.77884 3.41284 3.87505 3.41284 2.96089V2.07609H3.25911C2.91948 2.07609 2.64418 1.83103 2.64418 1.52871C2.64418 1.22639 2.91948 0.981323 3.25911 0.981323H8.14775C8.48737 0.981323 8.76267 1.22639 8.76267 1.52871C8.76267 1.83103 8.48737 2.07609 8.14775 2.07609H7.99402V3.01691C7.99402 3.43262 8.06317 3.84502 8.19956 4.24262C8.29875 4.53175 8.11584 4.83771 7.79103 4.926C7.7312 4.94226 7.67069 4.95 7.61123 4.95C7.34786 4.95 7.10423 4.79821 7.02333 4.56232C6.85137 4.06102 6.76417 3.54109 6.76417 3.01691V2.07609H4.64269V2.96089C4.64269 4.11346 4.21033 5.25301 3.42526 6.16958C2.80262 6.89656 2.45971 7.80037 2.45971 8.71451V12.8048C2.45971 13.4085 3.01142 13.8996 3.68955 13.8996H5.74955C6.08917 13.8996 6.36447 14.1447 6.36447 14.447Z" />
</g>
<defs>
<clipPath id="clip0">
<rect width="15.7421" height="14.0131" fill="white" transform="translate(0 0.981323)"/>
</clipPath>
</defs>
</svg>
