<svg width="16" height="16" viewBox="0 0 16 16" fill="none" xmlns="http://www.w3.org/2000/svg">
<g clip-path="url(#clip0)">
<path d="M13.5587 0.958008C12.403 0.958008 11.4628 1.85473 11.4628 2.95695V4.41733L10.9632 4.89385C10.8973 4.42703 10.677 3.97643 10.3016 3.61839L8.43964 1.84248L7.54548 2.69531C6.63476 3.56388 6.63476 4.97719 7.54548 5.84577L8.75529 6.99965L7.70118 8.00502C7.63526 7.5382 7.415 7.08759 7.03961 6.72956L5.17761 4.95364L4.28343 5.80647C3.37271 6.67505 3.37271 8.08836 4.28343 8.95693L5.49324 10.1108L4.43915 11.1162C4.37323 10.6493 4.15298 10.1987 3.77758 9.8407L1.91556 8.06478L1.0214 8.91761C0.110681 9.78622 0.110681 11.1995 1.0214 12.0681L2.23121 13.222L0 15.35L0.65219 15.972L2.8834 13.844L4.09324 14.9979C4.5486 15.4322 5.14674 15.6493 5.74485 15.6493C6.34296 15.6493 6.94113 15.4322 7.39646 14.9979L8.29065 14.1451L6.42862 12.3692C6.05325 12.0111 5.5808 11.8011 5.09134 11.7382L6.14543 10.7329L7.35527 11.8867C7.81063 12.321 8.40874 12.5381 9.00688 12.5381C9.60502 12.5381 10.2032 12.321 10.6585 11.8867L11.5527 11.0339L9.69064 9.25799C9.31525 8.89996 8.84282 8.68989 8.35336 8.62702L9.40748 7.62165L10.6173 8.77551C11.0727 9.20987 11.6707 9.42695 12.2689 9.42695C12.867 9.42695 13.4652 9.20976 13.9205 8.77551L14.8147 7.92268L12.9527 6.1468C12.5773 5.78876 12.1048 5.57869 11.6154 5.51582L12.115 5.0393H13.6462C14.8019 5.0393 15.7421 4.14257 15.7421 3.04035V0.958008L13.5587 0.958008ZM9.40745 6.3776L8.19761 5.22374C7.64654 4.69815 7.64654 3.84292 8.19761 3.31733L8.43957 3.08653L9.64941 4.24039C10.2005 4.76601 10.2005 5.62121 9.64941 6.14683L9.40745 6.3776ZM6.14543 9.48879L4.93559 8.33491C4.38452 7.80932 4.38452 6.95409 4.93559 6.4285L5.17758 6.1977L6.38742 7.35159C6.93849 7.87717 6.93849 8.73241 6.38742 9.25799L6.14543 9.48879ZM2.8834 12.6L1.67356 11.4461C1.12249 10.9205 1.12249 10.0653 1.67356 9.53967L1.91556 9.3089L3.12539 10.4628C3.67646 10.9883 3.67646 11.8436 3.12539 12.3692L2.8834 12.6ZM5.77643 12.9912L6.98624 14.1451L6.74427 14.3759C6.19317 14.9015 5.2965 14.9015 4.7454 14.3759L3.53559 13.222L3.77758 12.9912C4.32868 12.4656 5.22533 12.4656 5.77643 12.9912ZM9.03845 9.88002L10.2483 11.0339L10.0063 11.2647C9.4552 11.7903 8.55853 11.7903 8.00745 11.2647L6.79762 10.1108L7.03961 9.88002C7.59071 9.35444 8.48735 9.35447 9.03845 9.88002ZM12.3005 6.76885L13.5103 7.92274L13.2683 8.15354C12.7172 8.67913 11.8205 8.6791 11.2694 8.15354L10.0596 6.99965L10.3016 6.76885C10.8527 6.24327 11.7494 6.24327 12.3005 6.76885ZM14.8197 3.04038C14.8197 3.65754 14.2933 4.15964 13.6462 4.15964H12.3851V2.95695C12.3851 2.33979 12.9116 1.8377 13.5587 1.8377H14.8197V3.04038H14.8197Z" />
</g>
<defs>
<clipPath id="clip0">
<rect width="15.7421" height="15.014" fill="white" transform="translate(0 0.958008)"/>
</clipPath>
</defs>
</svg>
