<svg width="17" height="15" viewBox="0 0 17 15" fill="none" xmlns="http://www.w3.org/2000/svg">
<g clip-path="url(#clip0)">
<path d="M15.6151 1.86539C15.3692 1.6311 15.0642 1.46584 14.7323 1.3834C14.6458 1.06714 14.4723 0.776484 14.2264 0.542168C13.8595 0.192539 13.3717 0 12.8528 0C12.3339 0 11.846 0.192539 11.4791 0.542168C11.1122 0.891797 10.9101 1.35665 10.9101 1.85109C10.9101 2.21121 11.0173 2.55562 11.2172 2.85117L9.22717 4.74741C8.89864 4.67309 8.54654 4.65205 8.18072 4.68762C7.34863 4.76854 6.53611 5.13592 5.87946 5.72569C4.56023 5.81206 3.22957 6.41288 2.20237 7.39169C1.21419 8.33326 0.598247 9.5221 0.467914 10.7392C0.333983 11.99 0.725075 13.1217 1.56918 13.926C2.30466 14.6269 3.30099 15 4.4136 15C4.57788 15 4.74474 14.9919 4.91363 14.9754C6.19095 14.8513 7.4386 14.2643 8.42675 13.3228C9.45404 12.3439 10.0846 11.0761 10.1752 9.81896C10.7942 9.19312 11.1797 8.41896 11.2646 7.62621C11.3019 7.27755 11.2799 6.94204 11.2019 6.62903L13.1922 4.7325C13.9439 5.19231 14.9582 5.10923 15.6151 4.48327C16.3725 3.76151 16.3726 2.58715 15.6151 1.86539ZM10.347 7.53697C10.2795 8.16744 9.95437 8.78903 9.43135 9.2874C9.42812 9.29048 9.42477 9.29341 9.42148 9.2964C9.41459 9.30255 9.4078 9.30876 9.401 9.31506L9.26803 9.43893L9.2624 9.61605C9.22778 10.7088 8.68548 11.8333 7.77456 12.7013C6.79465 13.635 5.55567 14.1216 4.42132 14.1216C3.58127 14.1215 2.79848 13.8546 2.22134 13.3046C0.864878 12.0121 1.14894 9.63841 2.85453 8.01322C3.76544 7.14524 4.9456 6.62851 6.09238 6.59552L6.27879 6.59016L6.40888 6.46283C6.41515 6.45668 6.42133 6.4505 6.42748 6.44429C6.43068 6.44104 6.43387 6.43772 6.43744 6.43433C7.04809 5.85246 7.81807 5.54833 8.51843 5.54833C9.02682 5.54833 9.49862 5.7087 9.84584 6.03952C10.2329 6.40828 10.4109 6.94011 10.347 7.53697ZM14.9629 3.8618C14.5651 4.24087 13.9178 4.24084 13.5202 3.862C13.5146 3.85664 13.5092 3.8511 13.5038 3.84563L13.1715 3.50933L10.8026 5.76653C10.7131 5.64267 10.6115 5.52609 10.4981 5.41802C10.3847 5.30991 10.2623 5.21317 10.1323 5.12783L12.5019 2.86998L12.1496 2.55513C12.1435 2.54971 12.1374 2.54437 12.1313 2.53854C11.9386 2.35494 11.8324 2.11078 11.8324 1.85109C11.8324 1.59141 11.9386 1.34728 12.1313 1.16361C12.324 0.97998 12.5802 0.878877 12.8528 0.878877C13.1253 0.878877 13.3815 0.98001 13.5742 1.16361C13.7505 1.3316 13.8559 1.55476 13.8709 1.79203L13.8955 2.18074L14.3034 2.20421C14.5524 2.21854 14.7866 2.31891 14.9629 2.48687C15.3607 2.86594 15.3607 3.48272 14.9629 3.8618Z" />
</g>
<defs>
<clipPath id="clip0">
<rect width="15.7421" height="15" fill="white" transform="translate(0.44165)"/>
</clipPath>
</defs>
</svg>
