<svg width="17" height="11" viewBox="0 0 17 11" fill="none" xmlns="http://www.w3.org/2000/svg">
<path d="M11.569 0C10.7983 0 10.0499 0.374121 9.34451 1.1119C8.86136 1.61728 8.41275 2.28398 8.03318 3.05648C6.92472 2.63619 5.76156 2.3838 4.85154 2.3838C2.36344 2.38377 0.339233 4.31256 0.339233 6.68338C0.339233 9.0542 2.36344 10.983 4.85154 10.983C5.90908 10.983 7.39563 10.6306 8.72823 10.0242C9.53028 10.6446 10.527 10.983 11.569 10.983C14.0571 10.983 16.0813 9.0542 16.0813 6.68338C16.0813 4.39553 14.1757 0 11.569 0ZM1.26162 6.68338C1.26162 4.79719 2.87204 3.26268 4.85154 3.26268C5.92824 3.26268 7.49408 3.69586 8.74794 4.34057C10.143 5.0579 10.9431 5.91185 10.9431 6.68338C10.9431 7.45491 10.143 8.30883 8.74794 9.02622C7.49408 9.67093 5.92824 10.1041 4.85154 10.1041C2.87204 10.1041 1.26162 8.56954 1.26162 6.68338ZM11.569 10.1041C10.8725 10.1041 10.2016 9.91389 9.62645 9.56051C10.9019 8.81399 11.8655 7.81854 11.8655 6.68338C11.8655 5.5623 10.9139 4.45562 9.18601 3.5671C9.08418 3.51475 8.98057 3.46392 8.87581 3.41432C9.21421 2.72812 9.60763 2.14187 10.0264 1.70379C10.3862 1.32747 10.9458 0.878935 11.569 0.878935C12.3787 0.878935 13.2748 1.64133 14.0277 2.97067C14.7043 4.16537 15.1589 5.65743 15.1589 6.68338C15.1589 8.56954 13.5485 10.1041 11.569 10.1041Z" />
<path d="M11.569 0C10.7983 0 10.0499 0.374121 9.34451 1.1119C8.86136 1.61728 8.41275 2.28398 8.03318 3.05648C6.92472 2.63619 5.76156 2.3838 4.85154 2.3838C2.36344 2.38377 0.339233 4.31256 0.339233 6.68338C0.339233 9.0542 2.36344 10.983 4.85154 10.983C5.90908 10.983 7.39563 10.6306 8.72823 10.0242C9.53028 10.6446 10.527 10.983 11.569 10.983C14.0571 10.983 16.0813 9.0542 16.0813 6.68338C16.0813 4.39553 14.1757 0 11.569 0ZM1.26162 6.68338C1.26162 4.79719 2.87204 3.26268 4.85154 3.26268C5.92824 3.26268 7.49408 3.69586 8.74794 4.34057C10.143 5.0579 10.9431 5.91185 10.9431 6.68338C10.9431 7.45491 10.143 8.30883 8.74794 9.02622C7.49408 9.67093 5.92824 10.1041 4.85154 10.1041C2.87204 10.1041 1.26162 8.56954 1.26162 6.68338ZM11.569 10.1041C10.8725 10.1041 10.2016 9.91389 9.62645 9.56051C10.9019 8.81399 11.8655 7.81854 11.8655 6.68338C11.8655 5.5623 10.9139 4.45562 9.18601 3.5671C9.08418 3.51475 8.98057 3.46392 8.87581 3.41432C9.21421 2.72812 9.60763 2.14187 10.0264 1.70379C10.3862 1.32747 10.9458 0.878935 11.569 0.878935C12.3787 0.878935 13.2748 1.64133 14.0277 2.97067C14.7043 4.16537 15.1589 5.65743 15.1589 6.68338C15.1589 8.56954 13.5485 10.1041 11.569 10.1041Z" />
</svg>
