<svg id="Capa_1" enable-background="new 0 0 512.011 512.011" height="512" viewBox="0 0 512.011 512.011" width="512" xmlns="http://www.w3.org/2000/svg"><path d="m511.326 114.17c-3.205-48.167-16.393-85.831-16.952-87.41l-2.389-6.741-6.741-2.388c-1.579-.56-39.237-13.742-87.399-16.943-65.475-4.349-118.905 12.147-154.498 47.717-20.648 20.636-36.571 45.645-46.045 72.323-11.264 31.717-36.924 57.377-68.641 68.64-26.658 9.467-51.665 25.388-72.318 46.042-33.06 33.059-52.927 75.485-55.943 119.462-3.069 44.751 11.594 85.75 41.288 115.445 27.107 27.108 63.635 41.689 103.84 41.689 3.835 0 7.707-.133 11.604-.4 43.978-3.016 86.403-22.884 119.463-55.943 20.655-20.655 36.576-45.663 46.042-72.319h-.001c11.264-31.717 36.924-57.376 68.641-68.64 26.657-9.466 51.664-25.387 72.319-46.042 35.583-35.583 52.087-89.005 47.73-154.492zm-370.651 257.161c11.831 11.831 23.415 22.149 34.461 31.123-32.602 26.805-71.351 42.141-108.372 42.775.641-37.017 15.981-75.77 42.782-108.368 8.973 11.047 19.293 22.634 31.129 34.47zm21.213-21.213c-12.141-12.141-22.561-24.014-31.462-35.219 18.05-16.451 38.708-29.538 60.252-38.097 16.456-6.538 31.84-15.889 45.49-27.355l26.391 26.391c-11.466 13.65-20.817 29.034-27.355 45.49-8.56 21.546-21.647 42.204-38.098 60.253-11.207-8.903-23.079-19.324-35.218-31.463zm95.504-121.874c11.519-13.685 20.912-29.117 27.471-45.629 8.542-21.502 21.594-42.122 38-60.147 11.205 8.9 23.075 19.32 35.215 31.459 12.137 12.138 22.557 24.008 31.459 35.214-18.025 16.406-38.645 29.457-60.148 38-16.512 6.56-31.944 15.952-45.629 27.471zm121.899-95.529c-11.857-11.857-23.466-22.194-34.531-31.179 36.785-30.894 83.944-52.371 120.538-54.827-2.453 36.601-23.933 83.753-54.828 120.536-8.987-11.066-19.323-22.675-31.179-34.53zm24.732-101.339c-29.29 11.69-58.844 29.651-83.785 51.694-16.517-11.488-30.934-19.645-41.941-25.192 29.088-21.289 65.473-27.792 99.034-27.792 9.18-.001 18.143.489 26.692 1.29zm-149.049 48.662c9.103 4.085 24.559 11.843 43.577 24.625-17.822 20.119-32.079 42.992-41.569 66.877-5.063 12.743-12.178 24.705-20.866 35.429l-34.219-34.219c10.148-12.492 18.239-26.677 23.674-41.983 6.465-18.201 16.525-35.513 29.403-50.729zm-116.273 137.6c15.306-5.435 29.492-13.526 41.984-23.675l34.205 34.204c-10.688 8.637-22.6 15.713-35.288 20.754-23.927 9.505-46.839 23.795-66.984 41.662-12.776-19.01-20.532-34.46-24.618-43.563 15.221-12.873 32.522-22.926 50.701-29.382zm-108.371 139.287c2.136-31.16 14.526-61.508 35.275-87.049 5.555 11.072 13.787 25.675 25.449 42.438-26.67 30.549-44.436 66.557-51.214 102.86-7.628-17.537-10.944-37.345-9.51-58.249zm115.388 125.05c-17.053-.001-33.657-3.255-48.818-9.82 36.281-6.789 72.271-24.541 102.801-51.194 16.74 11.649 31.329 19.88 42.4 25.442-29.034 23.528-63.534 35.573-96.383 35.572zm148.648-108.671c-6.457 18.185-16.514 35.492-29.395 50.718-9.122-4.101-24.565-11.866-43.552-24.631 17.867-20.144 32.159-43.057 41.666-66.987 5.041-12.688 12.116-24.6 20.753-35.288l34.204 34.204c-10.149 12.492-18.24 26.678-23.676 41.984zm86.872-86.871c-15.306 5.435-29.492 13.526-41.983 23.674l-34.219-34.218c10.724-8.688 22.686-15.804 35.429-20.866 23.886-9.49 46.76-23.747 66.88-41.571 12.775 19 20.542 34.449 24.638 43.562-15.231 12.891-32.549 22.957-50.745 29.419zm72.903-52.732c-5.555-11.011-13.717-25.427-25.203-41.936 22.049-24.947 40.012-54.511 51.701-83.809 3.736 39.808.619 88.702-26.498 125.745z"/></svg>