<svg id="Capa_1" enable-background="new 0 0 512 512" height="512" viewBox="0 0 512 512" width="512" xmlns="http://www.w3.org/2000/svg"><g><path d="m509.811 47.49c-2.5-17.649-6.291-29.122-11.268-34.098-4.976-4.977-16.448-8.767-34.098-11.268-13.298-1.884-34.75-3.478-61.432-.369-43.612 5.083-108.295 23.837-168.783 84.325-2.246 2.246-4.449 4.533-6.627 6.845l-7.962-2.133c-27.09-7.257-55.387-3.533-79.676 10.49s-41.663 36.666-48.922 63.757c-1.346 5.021.005 10.381 3.569 14.166 3.564 3.784 8.835 5.455 13.927 4.411 18.316-3.749 36.983-3.139 54.807 1.671-22.91 43.762-38.944 89.248-49.925 128.154-31.842-4.352-66.015-1.499-99.715 8.415-15.226 1.947-19.046 23.02-4.563 29.11 34.694 14.528 65.347 34.957 91.11 60.719 25.763 25.763 46.191 56.416 60.719 91.109 2.345 5.599 7.815 9.207 13.832 9.206.276 0 .554-.008.833-.022 6.339-.351 11.77-4.654 13.562-10.744l.885-3.008c9.913-33.695 12.768-67.868 8.414-99.711 12.06-3.404 24.762-7.305 37.839-11.732 1.693 13.059 1.244 26.396-1.393 39.283-2.503 10.522 8.269 20.615 18.577 17.496 44.612-11.953 76.016-52.02 77.755-97.418 16.498-8.848 32.706-18.685 48.177-29.622 1.417 12.441.884 25.084-1.632 37.379-2.503 10.523 8.269 20.615 18.578 17.496 27.091-7.259 49.733-24.633 63.757-48.922s17.749-52.585 10.49-79.676l-4.028-15.033c28.941-44.28 39.871-87.132 43.566-118.843 3.104-26.681 1.511-48.134-.373-61.433zm-380.185 103.712c6.354-9.757 14.963-17.949 25.338-23.939 15.547-8.977 33.392-12.026 50.857-8.834-9.935 12.801-19.037 26.247-27.389 40.049-15.827-5.148-32.283-7.598-48.806-7.276zm137.688 253.726c.171-9.563-.593-19.141-2.241-28.564 11.075-4.291 22.284-8.964 33.5-14.065-4.918 17.445-16.07 32.671-31.259 42.629zm166.857-97.453c-5.998 10.389-14.203 19.006-23.977 25.361.229-12.449-1.103-24.919-3.963-37.066 6.777-5.766 13.339-11.778 19.624-18.064 6.279-6.279 12.102-12.604 17.513-18.946 2.571 16.777-.588 33.803-9.197 48.715zm-29.528-50.982c-63.664 63.664-158.617 98.567-227.06 116.636-7.714 2.036-12.484 9.755-10.855 17.565 4.049 19.411 4.809 40.167 2.33 61.342-13.29-22.577-29.209-43.182-47.592-61.564-18.382-18.383-38.987-34.303-61.566-47.593 21.175-2.479 41.931-1.72 61.342 2.33 7.81 1.637 15.529-3.141 17.566-10.855 18.067-68.442 52.969-163.393 116.635-227.061 26.768-26.768 54.346-44.362 79.904-55.89 13.986 62.109 63.077 111.2 125.186 125.187-11.528 25.558-29.123 53.134-55.89 79.903zm74.995-145.279c-1.549 10.945-4.144 23.459-8.338 36.99-54.234-10.401-97.166-53.334-107.568-107.568 13.53-4.194 26.044-6.788 36.99-8.338 37.212-5.266 66.154-.126 75.966 2.951 3.076 9.814 8.217 38.756 2.95 75.965z"/><circle cx="425.935" cy="66.001" r="15"/><path d="m342.146 243.863c-29.174-19.758-54.314-44.897-74.071-74.071-4.645-6.859-13.972-8.654-20.831-4.009-6.859 4.645-8.654 13.972-4.009 20.831 21.896 32.332 49.757 60.192 82.089 82.089 6.859 4.645 16.186 2.851 20.831-4.009 4.645-6.859 2.85-16.186-4.009-20.831z"/><path d="m309.744 123.286-.001-.001c-4.148-7.17-13.324-9.619-20.494-5.471l-.002.001c-7.17 4.149-9.619 13.324-5.47 20.494 21.537 37.224 52.596 68.286 89.818 89.831 7.17 4.15 16.346 1.702 20.496-5.468 4.15-7.17 1.702-16.346-5.468-20.496l-.008-.005c-32.735-18.948-59.929-46.147-78.871-78.885z"/></g></svg>