<svg width="17" height="15" viewBox="0 0 17 15" fill="none" xmlns="http://www.w3.org/2000/svg">
<g clip-path="url(#clip0)">
<path d="M16.1505 2.49043L15.8644 0.30363L13.5694 0.0309897C12.2702 -0.123348 10.9923 0.292526 10.0636 1.172C9.26443 1.92889 8.82393 2.9339 8.81464 3.98875C7.71244 3.99777 6.661 4.41432 5.86802 5.16996C5.07497 5.92562 4.63778 6.92738 4.62841 7.97771C3.52147 7.98662 2.46656 8.40636 1.67225 9.16782C0.749268 10.0527 0.312821 11.2703 0.474825 12.5084L0.760983 14.6952L3.05594 14.9678C3.23414 14.989 3.4118 14.9994 3.58834 14.9994C4.69909 14.9994 5.76046 14.5857 6.56175 13.8268C7.36091 13.0699 7.80145 12.0649 7.81074 11.01C8.91294 11.001 9.96438 10.5845 10.7574 9.82883C11.5504 9.07316 11.9876 8.07143 11.997 7.0211C13.1039 7.01219 14.1588 6.59245 14.9531 5.83099C15.8761 4.94612 16.3125 3.72853 16.1505 2.49043ZM14.2989 5.21138C13.5769 5.90353 12.5798 6.23467 11.5635 6.11986L10.9823 6.05423L11.0512 6.60798C11.1712 7.57268 10.8264 8.52012 10.1051 9.20735C9.38391 9.89457 8.38966 10.2231 7.37712 10.1089L6.79598 10.0432L6.86485 10.597C6.98528 11.5655 6.63779 12.5155 5.91143 13.2034C5.18529 13.8912 4.18599 14.2164 3.17001 14.0956L1.58742 13.9076L1.39009 12.3997C1.26341 11.4315 1.60467 10.4794 2.32644 9.78746C3.0484 9.09531 4.04539 8.76417 5.0619 8.87898L5.64304 8.94461L5.57417 8.39086C5.45417 7.42613 5.79899 6.47869 6.52024 5.79147C7.24149 5.10424 8.23596 4.7757 9.2482 4.88996L9.82934 4.95559L9.76047 4.40184C9.64 3.4333 9.98753 2.48331 10.7139 1.79539C11.4401 1.1076 12.4393 0.782639 13.4553 0.903168L15.0379 1.09117L15.2352 2.59915C15.3619 3.56734 15.0206 4.51947 14.2989 5.21138Z" />
<path d="M7.20491 6.44449C6.59413 7.02647 6.59413 7.97344 7.20491 8.55543C7.51032 8.84643 7.91144 8.99192 8.31259 8.99192C8.71374 8.99192 9.11489 8.84641 9.42026 8.55543C10.031 7.97344 10.031 7.02647 9.42026 6.44449C8.80948 5.8625 7.81569 5.8625 7.20491 6.44449ZM8.76807 7.93395C8.51693 8.17328 8.10831 8.17325 7.85714 7.93395C7.606 7.69465 7.606 7.30526 7.85714 7.06596C7.98271 6.94631 8.14766 6.88649 8.31259 6.88649C8.47751 6.88649 8.64247 6.94631 8.76804 7.06596C9.0192 7.30526 9.0192 7.69465 8.76807 7.93395Z" />
<path d="M3.01863 10.4335C2.40785 11.0155 2.40785 11.9625 3.01863 12.5445C3.32404 12.8355 3.72516 12.981 4.12631 12.981C4.52746 12.981 4.92861 12.8354 5.23401 12.5445C5.84479 11.9625 5.84479 11.0155 5.23401 10.4335C4.62326 9.85152 3.62944 9.85149 3.01863 10.4335ZM4.58182 11.923C4.33068 12.1623 3.92206 12.1623 3.67089 11.923C3.41975 11.6837 3.41975 11.2943 3.67089 11.055C3.79646 10.9353 3.96141 10.8755 4.12634 10.8755C4.29129 10.8755 4.45622 10.9353 4.58182 11.055C4.83296 11.2943 4.83296 11.6837 4.58182 11.923Z" />
<path d="M11.3913 2.45553C10.7805 3.03752 10.7805 3.9845 11.3913 4.56649C11.6967 4.8575 12.0978 5.00299 12.499 5.00299C12.9001 5.00299 13.3013 4.85747 13.6066 4.56649C14.2174 3.9845 14.2174 3.03752 13.6066 2.45553C12.9959 1.87355 12.0021 1.87355 11.3913 2.45553ZM12.9545 3.94501C12.7033 4.1843 12.2947 4.1843 12.0435 3.94501C11.7924 3.70571 11.7924 3.31632 12.0435 3.07702C12.1691 2.95737 12.3341 2.89754 12.499 2.89754C12.6639 2.89754 12.8289 2.95737 12.9544 3.07702C13.2056 3.31632 13.2056 3.70571 12.9545 3.94501Z" />
</g>
<defs>
<clipPath id="clip0">
<rect width="15.7421" height="15" fill="white" transform="translate(0.44165)"/>
</clipPath>
</defs>
</svg>
