<svg id="Layer_1" enable-background="new 0 0 512 512" height="512" viewBox="0 0 512 512" width="512" xmlns="http://www.w3.org/2000/svg"><g><path d="m256 206.733c105.722 0 191.733-86.012 191.733-191.733 0-8.284-6.716-15-15-15-79.376 0-147.639 48.487-176.733 117.397-29.094-68.91-97.357-117.397-176.733-117.397-8.284 0-15 6.716-15 15 0 105.722 86.011 191.733 191.733 191.733zm160.972-175.971c-7.446 76.623-68.587 137.764-145.21 145.21 7.446-76.623 68.587-137.764 145.21-145.21zm-176.734 145.21c-76.623-7.446-137.764-68.587-145.21-145.21 76.623 7.446 137.764 68.587 145.21 145.21z"/><path d="m376.5 447.733c8.284 0 15-6.716 15-15v-88.367c-1.972-51.813-76.247-51.773-78.2 0v88.367c.738 19.881 29.269 19.866 30 0v-22.489h18.2v22.489c0 8.285 6.716 15 15 15zm-33.2-67.489v-35.878c.429-12.046 17.776-12.038 18.2 0v35.878z"/><path d="m497 305.267c-8.284 0-15 6.716-15 15v55.983l-36.243-63.426c-3.374-5.905-10.302-8.802-16.873-7.055-6.574 1.745-11.15 7.695-11.15 14.497v112.467c.738 19.881 29.269 19.866 30 0v-55.983l36.243 63.426c1.479 2.589 7.316 9.594 16.873 7.055 6.574-1.745 11.15-7.695 11.15-14.497v-112.467c0-8.285-6.716-15-15-15z"/><path d="m175.667 335.267c19.881-.738 19.866-29.269 0-30h-48.2c-8.284 0-15 6.716-15 15v112.467c0 8.284 6.716 15 15 15h48.2c19.881-.738 19.866-29.269 0-30h-33.2v-26.234h17.133c19.881-.738 19.866-29.269 0-30h-17.133v-26.233z"/><path d="m64.848 316.146-17.71 61.987-17.711-61.987c-2.276-7.966-10.579-12.581-18.544-10.302-7.965 2.276-12.578 10.578-10.302 18.544l32.134 112.467c4.172 14.409 24.678 14.401 28.846 0l32.133-112.467c2.275-7.966-2.337-16.269-10.302-18.544-7.964-2.272-16.268 2.337-18.544 10.302z"/><path d="m272.066 363.379c8.284 0 15-6.721 15-15.005-2.168-57.12-84.08-57.087-86.233.01v56.232c2.175 57.136 84.079 57.094 86.233 0v-12.05c0-8.284-6.716-15-15-15h-14.058c-19.117.58-20.16 27.816-1.265 29.947-3.741 15.049-25.53 12.753-25.911-2.897v-56.232c.657-17.368 25.576-17.381 26.233-.01v.01c.001 8.284 6.717 14.995 15.001 14.995z"/><path d="m497 482h-482c-19.881.738-19.866 29.269 0 30h482c19.881-.738 19.866-29.269 0-30z"/><path d="m15 271h482c19.881-.738 19.866-29.269 0-30h-482c-19.881.738-19.866 29.269 0 30z"/></g></svg>