<svg width="158" height="74" viewBox="0 0 158 74" fill="none" xmlns="http://www.w3.org/2000/svg">
<path d="M57.08 35.21C55.288 35.21 53.566 34.958 51.914 34.454C50.29 33.922 49.016 33.264 48.092 32.48L49.436 30.128C50.36 30.856 51.522 31.458 52.922 31.934C54.322 32.382 55.778 32.606 57.29 32.606C59.306 32.606 60.79 32.298 61.742 31.682C62.722 31.038 63.212 30.142 63.212 28.994C63.212 28.182 62.946 27.552 62.414 27.104C61.882 26.628 61.21 26.278 60.398 26.054C59.586 25.802 58.508 25.564 57.164 25.34C55.372 25.004 53.93 24.668 52.838 24.332C51.746 23.968 50.808 23.366 50.024 22.526C49.268 21.686 48.89 20.524 48.89 19.04C48.89 17.192 49.66 15.68 51.2 14.504C52.74 13.328 54.882 12.74 57.626 12.74C59.054 12.74 60.482 12.936 61.91 13.328C63.338 13.692 64.514 14.182 65.438 14.798L64.136 17.192C62.316 15.932 60.146 15.302 57.626 15.302C55.722 15.302 54.28 15.638 53.3 16.31C52.348 16.982 51.872 17.864 51.872 18.956C51.872 19.796 52.138 20.468 52.67 20.972C53.23 21.476 53.916 21.854 54.728 22.106C55.54 22.33 56.66 22.568 58.088 22.82C59.852 23.156 61.266 23.492 62.33 23.828C63.394 24.164 64.304 24.738 65.06 25.55C65.816 26.362 66.194 27.482 66.194 28.91C66.194 30.842 65.382 32.382 63.758 33.53C62.162 34.65 59.936 35.21 57.08 35.21ZM80.7368 35.21C78.6088 35.21 76.6908 34.734 74.9828 33.782C73.2748 32.802 71.9308 31.458 70.9508 29.75C69.9708 28.042 69.4808 26.11 69.4808 23.954C69.4808 21.798 69.9708 19.866 70.9508 18.158C71.9308 16.45 73.2748 15.12 74.9828 14.168C76.6908 13.216 78.6088 12.74 80.7368 12.74C82.8648 12.74 84.7828 13.216 86.4908 14.168C88.1988 15.12 89.5288 16.45 90.4808 18.158C91.4608 19.866 91.9508 21.798 91.9508 23.954C91.9508 26.11 91.4608 28.042 90.4808 29.75C89.5288 31.458 88.1988 32.802 86.4908 33.782C84.7828 34.734 82.8648 35.21 80.7368 35.21ZM80.7368 32.564C82.3048 32.564 83.7048 32.214 84.9368 31.514C86.1968 30.786 87.1768 29.764 87.8768 28.448C88.5768 27.132 88.9268 25.634 88.9268 23.954C88.9268 22.274 88.5768 20.776 87.8768 19.46C87.1768 18.144 86.1968 17.136 84.9368 16.436C83.7048 15.708 82.3048 15.344 80.7368 15.344C79.1688 15.344 77.7548 15.708 76.4948 16.436C75.2628 17.136 74.2828 18.144 73.5548 19.46C72.8548 20.776 72.5048 22.274 72.5048 23.954C72.5048 25.634 72.8548 27.132 73.5548 28.448C74.2828 29.764 75.2628 30.786 76.4948 31.514C77.7548 32.214 79.1688 32.564 80.7368 32.564ZM105.347 6.146C104.059 6.146 103.079 6.496 102.407 7.196C101.763 7.896 101.441 8.932 101.441 10.304V12.908H108.245V15.428H101.525V35H98.5429V15.428H94.5949V12.908H98.5429V10.178C98.5429 8.162 99.1169 6.566 100.265 5.39C101.441 4.214 103.093 3.626 105.221 3.626C106.061 3.626 106.873 3.752 107.657 4.004C108.441 4.228 109.099 4.564 109.631 5.012L108.623 7.238C107.755 6.51 106.663 6.146 105.347 6.146ZM123.905 33.656C123.345 34.16 122.645 34.552 121.805 34.832C120.993 35.084 120.139 35.21 119.243 35.21C117.171 35.21 115.575 34.65 114.455 33.53C113.335 32.41 112.775 30.828 112.775 28.784V15.428H108.827V12.908H112.775V8.078H115.757V12.908H122.477V15.428H115.757V28.616C115.757 29.932 116.079 30.94 116.723 31.64C117.395 32.312 118.347 32.648 119.579 32.648C120.195 32.648 120.783 32.55 121.343 32.354C121.931 32.158 122.435 31.878 122.855 31.514L123.905 33.656ZM57.08 71.21C55.288 71.21 53.566 70.958 51.914 70.454C50.29 69.922 49.016 69.264 48.092 68.48L49.436 66.128C50.36 66.856 51.522 67.458 52.922 67.934C54.322 68.382 55.778 68.606 57.29 68.606C59.306 68.606 60.79 68.298 61.742 67.682C62.722 67.038 63.212 66.142 63.212 64.994C63.212 64.182 62.946 63.552 62.414 63.104C61.882 62.628 61.21 62.278 60.398 62.054C59.586 61.802 58.508 61.564 57.164 61.34C55.372 61.004 53.93 60.668 52.838 60.332C51.746 59.968 50.808 59.366 50.024 58.526C49.268 57.686 48.89 56.524 48.89 55.04C48.89 53.192 49.66 51.68 51.2 50.504C52.74 49.328 54.882 48.74 57.626 48.74C59.054 48.74 60.482 48.936 61.91 49.328C63.338 49.692 64.514 50.182 65.438 50.798L64.136 53.192C62.316 51.932 60.146 51.302 57.626 51.302C55.722 51.302 54.28 51.638 53.3 52.31C52.348 52.982 51.872 53.864 51.872 54.956C51.872 55.796 52.138 56.468 52.67 56.972C53.23 57.476 53.916 57.854 54.728 58.106C55.54 58.33 56.66 58.568 58.088 58.82C59.852 59.156 61.266 59.492 62.33 59.828C63.394 60.164 64.304 60.738 65.06 61.55C65.816 62.362 66.194 63.482 66.194 64.91C66.194 66.842 65.382 68.382 63.758 69.53C62.162 70.65 59.936 71.21 57.08 71.21ZM90.9428 60.878H72.4628C72.6308 63.174 73.5128 65.036 75.1088 66.464C76.7048 67.864 78.7208 68.564 81.1568 68.564C82.5288 68.564 83.7888 68.326 84.9368 67.85C86.0848 67.346 87.0788 66.618 87.9188 65.666L89.5988 67.598C88.6188 68.774 87.3868 69.67 85.9028 70.286C84.4468 70.902 82.8368 71.21 81.0728 71.21C78.8048 71.21 76.7888 70.734 75.0248 69.782C73.2888 68.802 71.9308 67.458 70.9508 65.75C69.9708 64.042 69.4808 62.11 69.4808 59.954C69.4808 57.798 69.9428 55.866 70.8668 54.158C71.8188 52.45 73.1068 51.12 74.7308 50.168C76.3828 49.216 78.2308 48.74 80.2748 48.74C82.3188 48.74 84.1528 49.216 85.7768 50.168C87.4008 51.12 88.6748 52.45 89.5988 54.158C90.5228 55.838 90.9848 57.77 90.9848 59.954L90.9428 60.878ZM80.2748 51.302C78.1468 51.302 76.3548 51.988 74.8988 53.36C73.4708 54.704 72.6588 56.468 72.4628 58.652H88.1288C87.9328 56.468 87.1068 54.704 85.6508 53.36C84.2228 51.988 82.4308 51.302 80.2748 51.302ZM99.9105 53.234C100.61 51.75 101.646 50.63 103.018 49.874C104.418 49.118 106.14 48.74 108.184 48.74V51.638L107.47 51.596C105.146 51.596 103.326 52.31 102.01 53.738C100.694 55.166 100.036 57.168 100.036 59.744V71H97.0545V48.908H99.9105V53.234ZM133.091 48.908L123.263 71H120.197L110.411 48.908H113.519L121.793 67.724L130.151 48.908H133.091ZM155.912 60.878H137.432C137.6 63.174 138.482 65.036 140.078 66.464C141.674 67.864 143.69 68.564 146.126 68.564C147.498 68.564 148.758 68.326 149.906 67.85C151.054 67.346 152.048 66.618 152.888 65.666L154.568 67.598C153.588 68.774 152.356 69.67 150.872 70.286C149.416 70.902 147.806 71.21 146.042 71.21C143.774 71.21 141.758 70.734 139.994 69.782C138.258 68.802 136.9 67.458 135.92 65.75C134.94 64.042 134.45 62.11 134.45 59.954C134.45 57.798 134.912 55.866 135.836 54.158C136.788 52.45 138.076 51.12 139.7 50.168C141.352 49.216 143.2 48.74 145.244 48.74C147.288 48.74 149.122 49.216 150.746 50.168C152.37 51.12 153.644 52.45 154.568 54.158C155.492 55.838 155.954 57.77 155.954 59.954L155.912 60.878ZM145.244 51.302C143.116 51.302 141.324 51.988 139.868 53.36C138.44 54.704 137.628 56.468 137.432 58.652H153.098C152.902 56.468 152.076 54.704 150.62 53.36C149.192 51.988 147.4 51.302 145.244 51.302Z" />
<path d="M3.64773 30.049L19 68.9566L34.3523 30.049H3.64773Z" fill="white" stroke-width="3"/>
<path d="M15.4048 0.421244C15.0233 1.03692 15.0615 1.31235 15.7099 2.39789C16.9304 4.45554 16.9813 5.7841 15.926 7.17747C15.0615 8.32781 13.8155 8.91108 10.8786 9.55916C6.75934 10.4827 5.30996 11.4062 4.54713 13.5935C4.21657 14.5494 4.20386 16.4936 4.5217 17.9518C4.64884 18.5027 4.72512 18.9887 4.6997 19.0049C4.67427 19.0373 4.35642 19.2966 3.98772 19.5882C1.59752 21.5 1.07625 24.7404 2.55106 28.6289L3.0469 29.9737H4.25471H5.44981L4.90312 28.7909C4.12757 27.1545 3.64445 25.2589 3.74616 24.2382C3.96229 21.8565 5.74223 20.6575 11.5779 18.9401C16.0532 17.644 18.9774 16.1696 21.6218 13.8851C22.4355 13.1722 23.8849 11.39 24.3045 10.5637L24.6477 9.867L25.5377 10.8391C26.9362 12.3783 27.6991 13.8527 27.8135 15.2947C28.0169 17.7412 25.9064 20.2687 21.8761 22.4073C19.9817 23.4119 19.0409 24.0437 17.7823 25.1455C16.638 26.15 14.8835 28.3373 14.4131 29.358L14.1334 29.9737H15.3031H16.4854L17.3627 28.8719C18.4942 27.4624 19.4986 26.6037 21.215 25.5667C25.0291 23.266 25.97 22.6342 26.9108 21.7593C27.9915 20.7385 28.6907 19.7826 29.212 18.6647C29.39 18.292 29.568 17.9842 29.6188 17.9842C29.8604 17.9842 31.2208 18.6647 31.7929 19.0535C32.5939 19.6044 33.7 21.0788 34.1196 22.1319C35.2129 24.9024 34.6154 27.43 32.3523 29.601L31.9836 29.9575L33.5729 29.9251L35.1494 29.8927L35.5562 29.2122C36.3318 27.916 36.5606 26.8953 36.5606 24.708C36.5479 22.9744 36.5098 22.6504 36.2173 21.7593C35.2129 18.7295 33.1787 16.607 30.4452 15.7159C29.9367 15.5539 29.9113 15.5215 29.8223 14.7924C29.5553 12.4755 27.9025 9.67258 25.703 7.76074C25.169 7.30709 25.0291 7.08026 24.8766 6.39978C24.4697 4.68237 23.3763 3.38621 21.1769 2.00904C19.6003 1.03692 17.0576 -7.32392e-06 16.2184 -7.32392e-06C15.7735 -7.32392e-06 15.6082 0.0810026 15.4048 0.421244ZM20.1343 4.09909C21.7998 5.05501 23.0204 6.5618 23.0204 7.67973C23.0204 9.39714 20.8844 11.8922 17.795 13.7555C15.837 14.9382 14.2987 15.6187 12.0229 16.283C10.9041 16.607 9.25126 17.1255 8.33586 17.4171C7.43317 17.725 6.67034 17.9356 6.64492 17.9032C6.54321 17.7736 6.23807 16.0724 6.23807 15.6349C6.23807 15.3595 6.3525 14.8572 6.47964 14.4846C6.91191 13.2694 7.90359 12.751 11.4508 11.9085C14.9598 11.0821 16.2184 10.4503 17.3754 8.97589C18.24 7.89036 18.6087 6.80483 18.6214 5.34665C18.6341 4.68237 18.5959 3.93707 18.5324 3.69405L18.4434 3.25659L18.9138 3.46722C19.1808 3.59683 19.7275 3.87227 20.1343 4.09909Z" />
</svg>
