<svg width="163" height="92" viewBox="0 0 163 92" fill="none" xmlns="http://www.w3.org/2000/svg">
<path d="M62.08 50.21C60.288 50.21 58.566 49.958 56.914 49.454C55.29 48.922 54.016 48.264 53.092 47.48L54.436 45.128C55.36 45.856 56.522 46.458 57.922 46.934C59.322 47.382 60.778 47.606 62.29 47.606C64.306 47.606 65.79 47.298 66.742 46.682C67.722 46.038 68.212 45.142 68.212 43.994C68.212 43.182 67.946 42.552 67.414 42.104C66.882 41.628 66.21 41.278 65.398 41.054C64.586 40.802 63.508 40.564 62.164 40.34C60.372 40.004 58.93 39.668 57.838 39.332C56.746 38.968 55.808 38.366 55.024 37.526C54.268 36.686 53.89 35.524 53.89 34.04C53.89 32.192 54.66 30.68 56.2 29.504C57.74 28.328 59.882 27.74 62.626 27.74C64.054 27.74 65.482 27.936 66.91 28.328C68.338 28.692 69.514 29.182 70.438 29.798L69.136 32.192C67.316 30.932 65.146 30.302 62.626 30.302C60.722 30.302 59.28 30.638 58.3 31.31C57.348 31.982 56.872 32.864 56.872 33.956C56.872 34.796 57.138 35.468 57.67 35.972C58.23 36.476 58.916 36.854 59.728 37.106C60.54 37.33 61.66 37.568 63.088 37.82C64.852 38.156 66.266 38.492 67.33 38.828C68.394 39.164 69.304 39.738 70.06 40.55C70.816 41.362 71.194 42.482 71.194 43.91C71.194 45.842 70.382 47.382 68.758 48.53C67.162 49.65 64.936 50.21 62.08 50.21ZM85.7368 50.21C83.6088 50.21 81.6908 49.734 79.9828 48.782C78.2748 47.802 76.9308 46.458 75.9508 44.75C74.9708 43.042 74.4808 41.11 74.4808 38.954C74.4808 36.798 74.9708 34.866 75.9508 33.158C76.9308 31.45 78.2748 30.12 79.9828 29.168C81.6908 28.216 83.6088 27.74 85.7368 27.74C87.8648 27.74 89.7828 28.216 91.4908 29.168C93.1988 30.12 94.5288 31.45 95.4808 33.158C96.4608 34.866 96.9508 36.798 96.9508 38.954C96.9508 41.11 96.4608 43.042 95.4808 44.75C94.5288 46.458 93.1988 47.802 91.4908 48.782C89.7828 49.734 87.8648 50.21 85.7368 50.21ZM85.7368 47.564C87.3048 47.564 88.7048 47.214 89.9368 46.514C91.1968 45.786 92.1768 44.764 92.8768 43.448C93.5768 42.132 93.9268 40.634 93.9268 38.954C93.9268 37.274 93.5768 35.776 92.8768 34.46C92.1768 33.144 91.1968 32.136 89.9368 31.436C88.7048 30.708 87.3048 30.344 85.7368 30.344C84.1688 30.344 82.7548 30.708 81.4948 31.436C80.2628 32.136 79.2828 33.144 78.5548 34.46C77.8548 35.776 77.5048 37.274 77.5048 38.954C77.5048 40.634 77.8548 42.132 78.5548 43.448C79.2828 44.764 80.2628 45.786 81.4948 46.514C82.7548 47.214 84.1688 47.564 85.7368 47.564ZM110.347 21.146C109.059 21.146 108.079 21.496 107.407 22.196C106.763 22.896 106.441 23.932 106.441 25.304V27.908H113.245V30.428H106.525V50H103.543V30.428H99.5949V27.908H103.543V25.178C103.543 23.162 104.117 21.566 105.265 20.39C106.441 19.214 108.093 18.626 110.221 18.626C111.061 18.626 111.873 18.752 112.657 19.004C113.441 19.228 114.099 19.564 114.631 20.012L113.623 22.238C112.755 21.51 111.663 21.146 110.347 21.146ZM128.905 48.656C128.345 49.16 127.645 49.552 126.805 49.832C125.993 50.084 125.139 50.21 124.243 50.21C122.171 50.21 120.575 49.65 119.455 48.53C118.335 47.41 117.775 45.828 117.775 43.784V30.428H113.827V27.908H117.775V23.078H120.757V27.908H127.477V30.428H120.757V43.616C120.757 44.932 121.079 45.94 121.723 46.64C122.395 47.312 123.347 47.648 124.579 47.648C125.195 47.648 125.783 47.55 126.343 47.354C126.931 47.158 127.435 46.878 127.855 46.514L128.905 48.656ZM62.08 86.21C60.288 86.21 58.566 85.958 56.914 85.454C55.29 84.922 54.016 84.264 53.092 83.48L54.436 81.128C55.36 81.856 56.522 82.458 57.922 82.934C59.322 83.382 60.778 83.606 62.29 83.606C64.306 83.606 65.79 83.298 66.742 82.682C67.722 82.038 68.212 81.142 68.212 79.994C68.212 79.182 67.946 78.552 67.414 78.104C66.882 77.628 66.21 77.278 65.398 77.054C64.586 76.802 63.508 76.564 62.164 76.34C60.372 76.004 58.93 75.668 57.838 75.332C56.746 74.968 55.808 74.366 55.024 73.526C54.268 72.686 53.89 71.524 53.89 70.04C53.89 68.192 54.66 66.68 56.2 65.504C57.74 64.328 59.882 63.74 62.626 63.74C64.054 63.74 65.482 63.936 66.91 64.328C68.338 64.692 69.514 65.182 70.438 65.798L69.136 68.192C67.316 66.932 65.146 66.302 62.626 66.302C60.722 66.302 59.28 66.638 58.3 67.31C57.348 67.982 56.872 68.864 56.872 69.956C56.872 70.796 57.138 71.468 57.67 71.972C58.23 72.476 58.916 72.854 59.728 73.106C60.54 73.33 61.66 73.568 63.088 73.82C64.852 74.156 66.266 74.492 67.33 74.828C68.394 75.164 69.304 75.738 70.06 76.55C70.816 77.362 71.194 78.482 71.194 79.91C71.194 81.842 70.382 83.382 68.758 84.53C67.162 85.65 64.936 86.21 62.08 86.21ZM95.9428 75.878H77.4628C77.6308 78.174 78.5128 80.036 80.1088 81.464C81.7048 82.864 83.7208 83.564 86.1568 83.564C87.5288 83.564 88.7888 83.326 89.9368 82.85C91.0848 82.346 92.0788 81.618 92.9188 80.666L94.5988 82.598C93.6188 83.774 92.3868 84.67 90.9028 85.286C89.4468 85.902 87.8368 86.21 86.0728 86.21C83.8048 86.21 81.7888 85.734 80.0248 84.782C78.2888 83.802 76.9308 82.458 75.9508 80.75C74.9708 79.042 74.4808 77.11 74.4808 74.954C74.4808 72.798 74.9428 70.866 75.8668 69.158C76.8188 67.45 78.1068 66.12 79.7308 65.168C81.3828 64.216 83.2308 63.74 85.2748 63.74C87.3188 63.74 89.1528 64.216 90.7768 65.168C92.4008 66.12 93.6748 67.45 94.5988 69.158C95.5228 70.838 95.9848 72.77 95.9848 74.954L95.9428 75.878ZM85.2748 66.302C83.1468 66.302 81.3548 66.988 79.8988 68.36C78.4708 69.704 77.6588 71.468 77.4628 73.652H93.1288C92.9328 71.468 92.1068 69.704 90.6508 68.36C89.2228 66.988 87.4308 66.302 85.2748 66.302ZM104.91 68.234C105.61 66.75 106.646 65.63 108.018 64.874C109.418 64.118 111.14 63.74 113.184 63.74V66.638L112.47 66.596C110.146 66.596 108.326 67.31 107.01 68.738C105.694 70.166 105.036 72.168 105.036 74.744V86H102.054V63.908H104.91V68.234ZM138.091 63.908L128.263 86H125.197L115.411 63.908H118.519L126.793 82.724L135.151 63.908H138.091ZM160.912 75.878H142.432C142.6 78.174 143.482 80.036 145.078 81.464C146.674 82.864 148.69 83.564 151.126 83.564C152.498 83.564 153.758 83.326 154.906 82.85C156.054 82.346 157.048 81.618 157.888 80.666L159.568 82.598C158.588 83.774 157.356 84.67 155.872 85.286C154.416 85.902 152.806 86.21 151.042 86.21C148.774 86.21 146.758 85.734 144.994 84.782C143.258 83.802 141.9 82.458 140.92 80.75C139.94 79.042 139.45 77.11 139.45 74.954C139.45 72.798 139.912 70.866 140.836 69.158C141.788 67.45 143.076 66.12 144.7 65.168C146.352 64.216 148.2 63.74 150.244 63.74C152.288 63.74 154.122 64.216 155.746 65.168C157.37 66.12 158.644 67.45 159.568 69.158C160.492 70.838 160.954 72.77 160.954 74.954L160.912 75.878ZM150.244 66.302C148.116 66.302 146.324 66.988 144.868 68.36C143.44 69.704 142.628 71.468 142.432 73.652H158.098C157.902 71.468 157.076 69.704 155.62 68.36C154.192 66.988 152.4 66.302 150.244 66.302Z" />
<path d="M17.8371 0.500633C17.3954 1.23233 17.4396 1.55966 18.1904 2.84976C19.6036 5.29515 19.6625 6.87407 18.4407 8.53001C17.4396 9.89712 15.9969 10.5903 12.5963 11.3605C7.8266 12.4581 6.14837 13.5556 5.26509 16.155C4.88234 17.2911 4.86762 19.6017 5.23565 21.3347C5.38286 21.9893 5.47119 22.567 5.44175 22.5862C5.4123 22.6248 5.04427 22.9328 4.61735 23.2794C1.84975 25.5515 1.24617 29.4025 2.95385 34.0238L3.52798 35.6219H4.9265H6.3103L5.67729 34.2163C4.77929 32.2716 4.21988 30.0187 4.33765 28.8056C4.58791 25.9751 6.64889 24.5503 13.406 22.5092C18.5879 20.9688 21.9738 19.2166 25.0358 16.5016C25.978 15.6544 27.6562 13.5363 28.142 12.5543L28.5395 11.7264L29.57 12.8817C31.1893 14.7109 32.0726 16.4631 32.2051 18.1768C32.4406 21.0843 29.9969 24.0881 25.3302 26.6298C23.1368 27.8236 22.0474 28.5746 20.59 29.8839C19.2651 31.0777 17.2335 33.6772 16.6888 34.8903L16.365 35.6219H17.7193H19.0884L20.1042 34.3126C21.4144 32.6374 22.5773 31.6169 24.5647 30.3846C28.9811 27.6503 30.0705 26.8994 31.1599 25.8596C32.4112 24.6465 33.2208 23.5105 33.8244 22.1819C34.0305 21.739 34.2366 21.3732 34.2955 21.3732C34.5752 21.3732 36.1504 22.1819 36.8128 22.644C37.7403 23.2987 39.021 25.0509 39.5068 26.3025C40.7729 29.5951 40.081 32.5989 37.4606 35.1791L37.0337 35.6027L38.8738 35.5642L40.6993 35.5257L41.1703 34.717C42.0683 33.1765 42.3333 31.9635 42.3333 29.364C42.3186 27.3037 42.2744 26.9186 41.9359 25.8596C40.7729 22.2589 38.4175 19.7365 35.2524 18.6775C34.6635 18.4849 34.6341 18.4464 34.531 17.5799C34.2219 14.8264 32.3081 11.4953 29.7613 9.2232C29.143 8.68405 28.9811 8.41448 28.8045 7.60577C28.3334 5.56473 27.0673 4.02432 24.5206 2.38763C22.6951 1.23233 19.7509 -2.04891e-07 18.7792 -2.04891e-07C18.264 -2.04891e-07 18.0726 0.0962753 17.8371 0.500633ZM23.3134 4.87154C25.2419 6.00759 26.6551 7.79832 26.6551 9.12692C26.6551 11.168 24.182 14.1332 20.6047 16.3476C18.3376 17.7532 16.5563 18.5619 13.9212 19.3514C12.6257 19.7365 10.712 20.3526 9.65204 20.6992C8.60683 21.0651 7.72355 21.3154 7.69411 21.2769C7.57634 21.1229 7.22302 19.1011 7.22302 18.5812C7.22302 18.2538 7.35552 17.6569 7.50273 17.2141C8.00325 15.7699 9.15151 15.1538 13.2588 14.1525C17.3218 13.1705 18.7792 12.4195 20.1189 10.6673C21.1199 9.37724 21.5469 8.08714 21.5616 6.35419C21.5763 5.56473 21.5321 4.67899 21.4585 4.39016L21.3555 3.87028L21.9002 4.12059C22.2093 4.27463 22.8423 4.60197 23.3134 4.87154Z" fill="#F87171"/>
<path d="M4.41033 36.2988L22 81.4408L39.5897 36.2988H4.41033Z" fill="white" stroke="#F87171" stroke-width="2"/>
</svg>
