<svg width="44" height="88" viewBox="0 0 44 88" fill="none" xmlns="http://www.w3.org/2000/svg">
<path d="M17.8371 0.500633C17.3954 1.23233 17.4396 1.55966 18.1904 2.84976C19.6036 5.29515 19.6625 6.87407 18.4407 8.53001C17.4396 9.89712 15.9969 10.5903 12.5963 11.3605C7.8266 12.4581 6.14837 13.5556 5.26509 16.155C4.88234 17.2911 4.86762 19.6017 5.23565 21.3347C5.38286 21.9893 5.47119 22.567 5.44175 22.5862C5.4123 22.6248 5.04427 22.9328 4.61735 23.2794C1.84975 25.5515 1.24617 29.4025 2.95385 34.0238L3.52798 35.6219H4.9265H6.3103L5.67729 34.2163C4.77929 32.2716 4.21988 30.0187 4.33765 28.8056C4.58791 25.9751 6.64889 24.5503 13.406 22.5092C18.5879 20.9688 21.9738 19.2166 25.0358 16.5016C25.978 15.6544 27.6562 13.5363 28.142 12.5543L28.5395 11.7264L29.57 12.8817C31.1893 14.7109 32.0726 16.4631 32.2051 18.1768C32.4406 21.0843 29.9969 24.0881 25.3302 26.6298C23.1368 27.8236 22.0474 28.5746 20.59 29.8839C19.2651 31.0777 17.2335 33.6772 16.6888 34.8903L16.365 35.6219H17.7193H19.0884L20.1042 34.3126C21.4144 32.6374 22.5773 31.6169 24.5647 30.3846C28.9811 27.6503 30.0705 26.8994 31.1599 25.8596C32.4112 24.6465 33.2208 23.5105 33.8244 22.1819C34.0305 21.739 34.2366 21.3732 34.2955 21.3732C34.5752 21.3732 36.1504 22.1819 36.8128 22.644C37.7403 23.2987 39.021 25.0509 39.5068 26.3025C40.7729 29.5951 40.081 32.5989 37.4606 35.1791L37.0337 35.6027L38.8738 35.5642L40.6993 35.5257L41.1703 34.717C42.0683 33.1765 42.3333 31.9635 42.3333 29.364C42.3186 27.3037 42.2744 26.9186 41.9359 25.8596C40.7729 22.2589 38.4175 19.7365 35.2524 18.6775C34.6635 18.4849 34.6341 18.4464 34.531 17.5799C34.2219 14.8264 32.3081 11.4953 29.7613 9.2232C29.143 8.68405 28.9811 8.41448 28.8045 7.60577C28.3334 5.56473 27.0673 4.02432 24.5206 2.38763C22.6951 1.23233 19.7509 -2.04891e-07 18.7792 -2.04891e-07C18.264 -2.04891e-07 18.0726 0.0962753 17.8371 0.500633ZM23.3134 4.87154C25.2419 6.00759 26.6551 7.79832 26.6551 9.12692C26.6551 11.168 24.182 14.1332 20.6047 16.3476C18.3376 17.7532 16.5563 18.5619 13.9212 19.3514C12.6257 19.7365 10.712 20.3526 9.65204 20.6992C8.60683 21.0651 7.72355 21.3154 7.69411 21.2769C7.57634 21.1229 7.22302 19.1011 7.22302 18.5812C7.22302 18.2538 7.35552 17.6569 7.50273 17.2141C8.00325 15.7699 9.15151 15.1538 13.2588 14.1525C17.3218 13.1705 18.7792 12.4195 20.1189 10.6673C21.1199 9.37724 21.5469 8.08714 21.5616 6.35419C21.5763 5.56473 21.5321 4.67899 21.4585 4.39016L21.3555 3.87028L21.9002 4.12059C22.2093 4.27463 22.8423 4.60197 23.3134 4.87154Z" fill="#F87171"/>
<path d="M4.41033 36.2988L22 81.4408L39.5897 36.2988H4.41033Z" stroke="#F87171" stroke-width="2"/>
</svg>
